<svg width="33" height="32" viewBox="0 0 33 32" fill="none" xmlns="http://www.w3.org/2000/svg">
<path d="M32.5456 16.0057C32.5456 24.0888 26.5557 30.7712 18.7743 31.8556C18.0467 31.9566 17.3023 32.0093 16.5467 32.0093C15.6745 32.0093 14.818 31.9398 13.9839 31.8052C6.36624 30.5784 0.547852 23.971 0.547852 16.0057C0.547852 7.16676 7.71153 0.000976562 16.5479 0.000976562C25.3842 0.000976562 32.5479 7.16676 32.5479 16.0057H32.5456Z" fill="#383D38"/>
<path d="M18.7746 12.8523V16.3388H23.0863L22.4036 21.0352H18.7746V31.8557C18.0471 31.9566 17.3027 32.0093 16.5471 32.0093C15.6749 32.0093 14.8184 31.9398 13.9843 31.8052V21.0352H10.0078V16.3388H13.9843V12.0729C13.9843 9.42641 16.1289 7.28003 18.7758 7.28003V7.28227C18.7836 7.28227 18.7903 7.28003 18.7982 7.28003H23.0874V11.3418H20.2847C19.4518 11.3418 18.7758 12.018 18.7758 12.8512L18.7746 12.8523Z" fill="white"/>
</svg>
