<svg width="18" height="18" viewBox="0 0 18 18" fill="none" xmlns="http://www.w3.org/2000/svg">
<path d="M9 3.9375C8.61062 3.9375 8.22998 3.82204 7.90622 3.60571C7.58246 3.38938 7.33012 3.0819 7.18111 2.72216C7.0321 2.36242 6.99312 1.96657 7.06908 1.58467C7.14504 1.20277 7.33255 0.851969 7.60788 0.576634C7.88322 0.3013 8.23402 0.113795 8.61592 0.0378299C8.99782 -0.0381348 9.39367 0.000853043 9.75341 0.149863C10.1132 0.298873 10.4206 0.551213 10.637 0.874972C10.8533 1.19873 10.9688 1.57937 10.9688 1.96875C10.9682 2.49072 10.7606 2.99116 10.3915 3.36025C10.0224 3.72934 9.52197 3.93694 9 3.9375Z" fill="black"/>
<path d="M15.1871 3.96558L15.1713 3.96979L15.1566 3.97436C15.1214 3.98421 15.0863 3.99476 15.0511 4.00565C14.3968 4.19761 11.2215 5.09268 8.98453 5.09268C6.90574 5.09268 4.01766 4.31925 3.09375 4.05663C3.00179 4.02109 2.90789 3.99081 2.8125 3.96593C2.14453 3.79015 1.6875 4.46866 1.6875 5.08882C1.6875 5.703 2.23945 5.9955 2.79668 6.20538V6.21522L6.14426 7.26077C6.48633 7.3919 6.57773 7.52585 6.62238 7.64186C6.76758 8.01417 6.65156 8.7514 6.61043 9.00874L6.40652 10.5908L5.27484 16.785C5.27133 16.8018 5.26816 16.8191 5.26535 16.8366L5.25727 16.8813C5.1757 17.4491 5.59266 18 6.38227 18C7.07133 18 7.37543 17.5243 7.50727 16.8771C7.6391 16.2298 8.49164 11.3375 8.98383 11.3375C9.47602 11.3375 10.4899 16.8771 10.4899 16.8771C10.6218 17.5243 10.9259 18 11.6149 18C12.4066 18 12.8236 17.4466 12.7399 16.8771C12.7327 16.8292 12.7238 16.7816 12.7132 16.7343L11.5661 10.5915L11.3625 9.00944C11.2152 8.088 11.3337 7.78354 11.3737 7.71218C11.3748 7.7105 11.3758 7.70874 11.3766 7.7069C11.4145 7.63659 11.5875 7.47909 11.9911 7.32757L15.1298 6.23034C15.1491 6.2252 15.1681 6.2191 15.1868 6.21206C15.7493 6.00112 16.3118 5.70933 16.3118 5.08952C16.3118 4.46972 15.8551 3.79015 15.1871 3.96558Z" fill="black"/>
</svg>
