<svg width="33" height="32" viewBox="0 0 33 32" fill="none" xmlns="http://www.w3.org/2000/svg">
<path d="M16.9476 0H16.8747C8.05827 0 0.911133 7.14924 0.911133 15.9683V16.0412C0.911133 24.8602 8.05827 32.0094 16.8747 32.0094H16.9476C25.764 32.0094 32.9111 24.8602 32.9111 16.0412V15.9683C32.9111 7.14924 25.764 0 16.9476 0Z" fill="#383D38"/>
<path d="M21.8626 6.51221H11.9609C9.22541 6.51221 7 8.73828 7 11.4746V20.5359C7 23.2722 9.22541 25.4983 11.9609 25.4983H21.8626C24.5981 25.4983 26.8236 23.2722 26.8236 20.5359V11.4746C26.8236 8.73828 24.5981 6.51221 21.8626 6.51221ZM8.75006 11.4746C8.75006 9.70384 10.1907 8.26278 11.9609 8.26278H21.8626C23.6329 8.26278 25.0735 9.70384 25.0735 11.4746V20.5359C25.0735 22.3066 23.6329 23.7477 21.8626 23.7477H11.9609C10.1907 23.7477 8.75006 22.3066 8.75006 20.5359V11.4746Z" fill="white"/>
<path d="M16.9114 20.6199C19.4552 20.6199 21.5259 18.5497 21.5259 16.0041C21.5259 13.4584 19.4563 11.3882 16.9114 11.3882C14.3665 11.3882 12.2969 13.4584 12.2969 16.0041C12.2969 18.5497 14.3665 20.6199 16.9114 20.6199ZM16.9114 13.1399C18.491 13.1399 19.7758 14.4251 19.7758 16.0052C19.7758 17.5853 18.491 18.8705 16.9114 18.8705C15.3317 18.8705 14.0469 17.5853 14.0469 16.0052C14.0469 14.4251 15.3317 13.1399 16.9114 13.1399Z" fill="white"/>
<path d="M21.9533 12.1341C22.6383 12.1341 23.1966 11.5767 23.1966 10.8904C23.1966 10.2041 22.6394 9.64673 21.9533 9.64673C21.2672 9.64673 20.71 10.2041 20.71 10.8904C20.71 11.5767 21.2672 12.1341 21.9533 12.1341Z" fill="white"/>
</svg>
