<svg width="20" height="20" viewBox="0 0 20 20" fill="none" xmlns="http://www.w3.org/2000/svg">
<path d="M14.8622 0.512207H4.96054C2.22502 0.512207 -0.000396729 2.73828 -0.000396729 5.4746V14.5359C-0.000396729 17.2722 2.22502 19.4983 4.96054 19.4983H14.8622C17.5978 19.4983 19.8232 17.2722 19.8232 14.5359V5.4746C19.8232 2.73828 17.5978 0.512207 14.8622 0.512207ZM1.74967 5.4746C1.74967 3.70384 3.1903 2.26278 4.96054 2.26278H14.8622C16.6325 2.26278 18.0731 3.70384 18.0731 5.4746V14.5359C18.0731 16.3066 16.6325 17.7477 14.8622 17.7477H4.96054C3.1903 17.7477 1.74967 16.3066 1.74967 14.5359V5.4746Z" fill="white"/>
<path d="M9.91133 14.6199C12.4551 14.6199 14.5258 12.5497 14.5258 10.0041C14.5258 7.45837 12.4563 5.38818 9.91133 5.38818C7.3664 5.38818 5.29681 7.45837 5.29681 10.0041C5.29681 12.5497 7.3664 14.6199 9.91133 14.6199ZM9.91133 7.13988C11.491 7.13988 12.7758 8.42506 12.7758 10.0052C12.7758 11.5853 11.491 12.8705 9.91133 12.8705C8.33168 12.8705 7.04688 11.5853 7.04688 10.0052C7.04688 8.42506 8.33168 7.13988 9.91133 7.13988Z" fill="white"/>
<path d="M14.953 6.13386C15.638 6.13386 16.1964 5.5765 16.1964 4.89017C16.1964 4.20385 15.6392 3.64648 14.953 3.64648C14.2669 3.64648 13.7097 4.20385 13.7097 4.89017C13.7097 5.5765 14.2669 6.13386 14.953 6.13386Z" fill="white"/>
</svg>
