<svg width="32" height="32" viewBox="0 0 32 32" fill="none" xmlns="http://www.w3.org/2000/svg">
<path d="M16.0364 0H15.9636C7.14714 0 0 7.14923 0 15.9683V16.0412C0 24.8602 7.14714 32.0094 15.9636 32.0094H16.0364C24.8529 32.0094 32 24.8602 32 16.0412V15.9683C32 7.14923 24.8529 0 16.0364 0Z" fill="#383D38"/>
<path d="M7.63117 10.6391C7.20964 10.2477 7 9.76327 7 9.18685C7 8.61043 7.21076 8.10465 7.63117 7.71215C8.05271 7.32076 8.59534 7.12451 9.26016 7.12451C9.92498 7.12451 10.4463 7.32076 10.8667 7.71215C11.2883 8.10353 11.4979 8.59585 11.4979 9.18685C11.4979 9.77785 11.2871 10.2477 10.8667 10.6391C10.4452 11.0305 9.9104 11.2268 9.26016 11.2268C8.60991 11.2268 8.05271 11.0305 7.63117 10.6391ZM11.1436 12.8843V24.8837H7.35314V12.8843H11.1436Z" fill="#FEFFFC"/>
<path d="M23.7618 14.0696C24.5881 14.9668 25.0007 16.1981 25.0007 17.7659V24.6718H21.4008V18.2526C21.4008 17.462 21.1956 16.8474 20.7864 16.4101C20.3772 15.9727 19.8256 15.7529 19.135 15.7529C18.4444 15.7529 17.8928 15.9716 17.4836 16.4101C17.0744 16.8474 16.8692 17.462 16.8692 18.2526V24.6718H13.248V12.8506H16.8692V14.4184C17.2358 13.8958 17.7303 13.4831 18.3514 13.1792C18.9725 12.8753 19.6709 12.7239 20.4478 12.7239C21.8313 12.7239 22.9367 13.1725 23.7618 14.0685V14.0696Z" fill="#FEFFFC"/>
</svg>
