<svg width="28" height="27" viewBox="0 0 28 27" fill="none" xmlns="http://www.w3.org/2000/svg">
<path d="M1.44676 5.59484C0.814453 5.00777 0.5 4.28108 0.5 3.41645C0.5 2.55181 0.816135 1.79315 1.44676 1.20439C2.07907 0.617315 2.893 0.322937 3.89024 0.322937C4.88747 0.322937 5.66946 0.617315 6.30009 1.20439C6.93239 1.79147 7.24685 2.52994 7.24685 3.41645C7.24685 4.30295 6.93071 5.00777 6.30009 5.59484C5.66778 6.18192 4.86561 6.4763 3.89024 6.4763C2.91487 6.4763 2.07907 6.18192 1.44676 5.59484ZM6.71545 8.96255L6.71545 26.9617H1.02971L1.02971 8.96255L6.71545 8.96255Z" fill="#606060"/>
<path d="M25.6423 10.7404C26.8817 12.0861 27.5005 13.9331 27.5005 16.2848L27.5005 26.6436H22.1007L22.1007 17.0149C22.1007 15.8289 21.793 14.9071 21.1791 14.2511C20.5653 13.595 19.738 13.2653 18.702 13.2653C17.6661 13.2653 16.8387 13.5933 16.2249 14.2511C15.6111 14.9071 15.3034 15.8289 15.3034 17.0149L15.3034 26.6436H9.87158L9.87158 8.91186H15.3034V11.2635C15.8533 10.4796 16.5949 9.86061 17.5266 9.40474C18.4582 8.94887 19.5059 8.72177 20.6713 8.72177C22.7465 8.72177 24.4046 9.39464 25.6423 10.7387V10.7404Z" fill="#606060"/>
</svg>
