<svg width="47" height="120" viewBox="0 0 47 120" fill="none" xmlns="http://www.w3.org/2000/svg">
<rect x="0.5" y="0.5" width="46" height="119" rx="7.5" stroke="black"/>
<g clip-path="url(#clip0_1_3106)">
<path d="M12.9165 34.1796C12.4241 34.6532 12.4441 35.4472 12.9596 35.8955L13.4125 36.2892C13.8731 36.6897 14.5649 36.666 14.997 36.235L22.6787 28.5728C23.1326 28.12 23.8674 28.12 24.3213 28.5728L32.003 36.235C32.4351 36.666 33.1269 36.6897 33.5875 36.2892L34.0404 35.8955C34.5559 35.4472 34.5759 34.6532 34.0835 34.1796L24.3062 24.7755C23.856 24.3424 23.144 24.3424 22.6938 24.7755L12.9165 34.1796Z" fill="black"/>
</g>
<path d="M33 90.816L18.504 90.816L18.504 95.688L16.464 95.688L16.464 83.688L18.504 83.688L18.504 88.512L33 88.512L33 90.816ZM33.24 75.7279C33.24 77.4719 32.928 78.8319 32.304 79.8079C31.664 80.7679 30.72 81.4479 29.472 81.8479C28.208 82.2319 26.656 82.4239 24.816 82.4239C22.96 82.4239 21.4 82.2239 20.136 81.8239C18.856 81.4239 17.88 80.7439 17.208 79.7839C16.536 78.8079 16.2 77.4559 16.2 75.7279C16.2 74.0159 16.536 72.6799 17.208 71.7199C17.864 70.7439 18.832 70.0559 20.112 69.6559C21.392 69.2559 22.96 69.0559 24.816 69.0559C26.704 69.0559 28.28 69.2559 29.544 69.6559C30.792 70.0399 31.72 70.7199 32.328 71.6959C32.936 72.6559 33.24 73.9999 33.24 75.7279ZM31.248 75.7279C31.248 74.5439 31.016 73.6479 30.552 73.0399C30.088 72.4159 29.384 71.9919 28.44 71.7679C27.48 71.5439 26.272 71.4319 24.816 71.4319C23.392 71.4319 22.192 71.5439 21.216 71.7679C20.224 71.9919 19.472 72.4159 18.96 73.0399C18.448 73.6639 18.192 74.5599 18.192 75.7279C18.192 76.9119 18.448 77.8159 18.96 78.4399C19.472 79.0479 20.216 79.4719 21.192 79.7119C22.168 79.9359 23.376 80.0479 24.816 80.0479C26.224 80.0479 27.408 79.9359 28.368 79.7119C29.328 79.4879 30.048 79.0719 30.528 78.4639C31.008 77.8399 31.248 76.9279 31.248 75.7279ZM33 65.9327L16.464 65.9327L16.464 59.8367C16.464 58.5727 16.664 57.5327 17.064 56.7167C17.448 55.9007 18.04 55.2927 18.84 54.8927C19.64 54.4927 20.672 54.2927 21.936 54.2927C23.184 54.2927 24.232 54.4927 25.08 54.8927C25.928 55.2927 26.568 55.9007 27 56.7167C27.432 57.5327 27.648 58.5727 27.648 59.8367L27.648 63.6287L33 63.6287L33 65.9327ZM25.704 63.6287L25.704 59.8607C25.704 58.7247 25.384 57.9087 24.744 57.4127C24.088 56.9007 23.152 56.6447 21.936 56.6447C20.72 56.6447 19.832 56.9007 19.272 57.4127C18.712 57.9087 18.432 58.7247 18.432 59.8607L18.432 63.6287L25.704 63.6287Z" fill="black"/>
<defs>
<clipPath id="clip0_1_3106">
<rect width="21" height="43" fill="white" transform="translate(2 45) rotate(-90)"/>
</clipPath>
</defs>
</svg>
