<svg width="22" height="22" viewBox="0 0 22 22" fill="none" xmlns="http://www.w3.org/2000/svg">
<path d="M14.3031 15.6862C10.2076 15.6862 6.87568 12.3521 6.87456 8.25547C6.87568 7.21701 7.721 6.37256 8.75691 6.37256C8.86342 6.37256 8.9688 6.38153 9.0697 6.39947C9.29168 6.43648 9.50246 6.51162 9.69641 6.62488C9.72444 6.64171 9.74349 6.66863 9.74798 6.70003L10.1807 9.4285C10.1863 9.4599 10.1762 9.49242 10.1549 9.51597C9.91614 9.78063 9.6112 9.97128 9.2715 10.0666L9.10782 10.1126L9.16948 10.2707C9.72779 11.6927 10.8646 12.8287 12.2873 13.3894L12.4454 13.4522L12.4913 13.2885C12.5866 12.9487 12.7772 12.6437 13.0418 12.4048C13.0609 12.3869 13.0867 12.3779 13.1124 12.3779C13.1181 12.3779 13.1237 12.3779 13.1304 12.379L15.8581 12.8119C15.8906 12.8175 15.9175 12.8354 15.9343 12.8635C16.0464 13.0575 16.1215 13.2695 16.1596 13.4915C16.1776 13.5902 16.1854 13.6945 16.1854 13.8033C16.1854 14.8406 15.3412 15.685 14.3031 15.6862Z" fill="#FDFDFD"/>
<path d="M21.5656 10.106C21.3447 7.60969 20.2012 5.2939 18.3458 3.58594C16.4791 1.86789 14.0575 0.921387 11.5249 0.921387C5.9664 0.921387 1.44382 5.4453 1.44382 11.0054C1.44382 12.8715 1.95841 14.6894 2.93266 16.2729L0.759933 21.0839L7.71646 20.3426C8.92614 20.8383 10.2065 21.0895 11.5238 21.0895C11.8702 21.0895 12.2256 21.0715 12.5821 21.0345C12.896 21.0009 13.2133 20.9515 13.525 20.8887C18.1798 19.9478 21.5779 15.8153 21.6048 11.0593V11.0054C21.6048 10.7026 21.5914 10.3998 21.5645 10.1071L21.5656 10.106ZM7.98441 18.2309L4.13562 18.6413L5.28477 16.0945L5.05493 15.7861C5.03812 15.7637 5.0213 15.7413 5.00224 15.7155C4.00445 14.3372 3.47752 12.7089 3.47752 11.0065C3.47752 6.56786 7.08751 2.95681 11.5249 2.95681C15.682 2.95681 19.2057 6.20115 19.5453 10.3427C19.5633 10.5647 19.5734 10.7879 19.5734 11.0077C19.5734 11.0705 19.5723 11.1321 19.5711 11.1983C19.4859 14.9114 16.8928 18.0649 13.2649 18.8679C12.9879 18.9296 12.7043 18.9767 12.4218 19.0069C12.128 19.0406 11.8265 19.0574 11.5271 19.0574C10.4609 19.0574 9.42504 18.8511 8.44631 18.4429C8.33756 18.3991 8.23105 18.352 8.13127 18.3038L7.98553 18.2331L7.98441 18.2309Z" fill="#FDFDFD"/>
</svg>
