<svg width="33" height="32" viewBox="0 0 33 32" fill="none" xmlns="http://www.w3.org/2000/svg">
<path d="M16.221 0H16.1481C7.3317 0 0.18457 7.14924 0.18457 15.9683V16.0412C0.18457 24.8602 7.3317 32.0094 16.1481 32.0094H16.221C25.0374 32.0094 32.1846 24.8602 32.1846 16.0412V15.9683C32.1846 7.14924 25.0374 0 16.221 0Z" fill="#383D38"/>
<path d="M19.3025 20.6862C15.2071 20.6862 11.8751 17.3521 11.874 13.2555C11.8751 12.217 12.7205 11.3726 13.7564 11.3726C13.8629 11.3726 13.9683 11.3815 14.0692 11.3995C14.2911 11.4365 14.5019 11.5116 14.6959 11.6249C14.7239 11.6417 14.743 11.6686 14.7474 11.7L15.1802 14.4285C15.1858 14.4599 15.1757 14.4924 15.1544 14.516C14.9156 14.7806 14.6107 14.9713 14.271 15.0666L14.1073 15.1126L14.1689 15.2707C14.7273 16.6927 15.8641 17.8287 17.2868 18.3894L17.4449 18.4522L17.4908 18.2885C17.5861 17.9487 17.7767 17.6437 18.0413 17.4048C18.0603 17.3869 18.0861 17.3779 18.1119 17.3779C18.1175 17.3779 18.1231 17.3779 18.1299 17.379L20.8575 17.8119C20.89 17.8175 20.9169 17.8354 20.9338 17.8635C21.0459 18.0575 21.121 18.2695 21.1591 18.4915C21.177 18.5902 21.1849 18.6945 21.1849 18.8033C21.1849 19.8406 20.3407 20.685 19.3025 20.6862Z" fill="#FDFDFD"/>
<path d="M26.5654 15.1058C26.3446 12.6094 25.201 10.2937 23.3456 8.5857C21.4789 6.86764 19.0573 5.92114 16.5247 5.92114C10.9662 5.92114 6.44366 10.4451 6.44366 16.0052C6.44366 17.8713 6.95824 19.6891 7.93249 21.2726L5.75977 26.0836L12.7163 25.3423C13.926 25.838 15.2063 26.0892 16.5236 26.0892C16.87 26.0892 17.2254 26.0713 17.5819 26.0343C17.8958 26.0006 18.2131 25.9513 18.5248 25.8885C23.1797 24.9476 26.5778 20.8151 26.6047 16.059V16.0052C26.6047 15.7024 26.5912 15.3996 26.5643 15.1069L26.5654 15.1058ZM12.9842 23.2306L9.13546 23.6411L10.2846 21.0943L10.0548 20.7859C10.0379 20.7635 10.0211 20.741 10.0021 20.7152C9.00428 19.337 8.47735 17.7087 8.47735 16.0063C8.47735 11.5676 12.0873 7.95657 16.5247 7.95657C20.6818 7.95657 24.2055 11.2009 24.5452 15.3424C24.5631 15.5645 24.5732 15.7876 24.5732 16.0074C24.5732 16.0702 24.5721 16.1319 24.571 16.1981C24.4858 19.9112 21.8926 23.0647 18.2647 23.8676C17.9878 23.9293 17.7041 23.9764 17.4216 24.0067C17.1279 24.0403 16.8263 24.0572 16.527 24.0572C15.4608 24.0572 14.4249 23.8508 13.4461 23.4426C13.3374 23.3989 13.2309 23.3518 13.1311 23.3035L12.9854 23.2329L12.9842 23.2306Z" fill="#FDFDFD"/>
</svg>
