<svg width="33" height="32" viewBox="0 0 33 32" fill="none" xmlns="http://www.w3.org/2000/svg">
<path d="M32.6345 16.0059C32.6345 24.089 26.6446 30.7715 18.8632 31.8559C18.1356 31.9568 17.3912 32.0095 16.6356 32.0095C15.7634 32.0095 14.9069 31.94 14.0728 31.8054C6.4551 30.5786 0.636719 23.9713 0.636719 16.0059C0.636719 7.16701 7.80039 0.0012207 16.6367 0.0012207C25.473 0.0012207 32.6367 7.16701 32.6367 16.0059H32.6345Z" fill="#383D38"/>
<path d="M7.12605 7.06055L14.505 16.9289L7.08008 24.9526H8.75161L15.2527 17.9281L20.505 24.9526H26.1922L18.3985 14.5291L25.3099 7.06055H23.6384L17.6518 13.5299L12.8144 7.06055H7.12715H7.12605ZM9.58344 8.29185H12.1956L23.7326 23.7213H21.1204L9.58344 8.29185Z" fill="white"/>
</svg>
