<svg width="33" height="32" viewBox="0 0 33 32" fill="none" xmlns="http://www.w3.org/2000/svg">
<path d="M32.2734 16.0047C32.2734 7.16556 25.11 0 16.2735 0C7.43689 0 0.273438 7.16556 0.273438 16.0047C0.273438 24.8439 7.43689 32.0094 16.2735 32.0094C25.11 32.0094 32.2734 24.8439 32.2734 16.0047Z" fill="#383D38"/>
<path d="M26.3481 12.6883C26.2221 11.4725 25.9512 10.1286 24.9539 9.42233C24.1815 8.87463 23.1663 8.85438 22.2185 8.85551C20.215 8.85551 18.2103 8.85888 16.2068 8.86001C14.2798 8.86226 12.3527 8.86338 10.4256 8.86563C9.62063 8.86563 8.83811 8.80377 8.09044 9.15241C7.44846 9.45157 6.9459 10.0206 6.64346 10.6538C6.2241 11.5344 6.1364 12.532 6.08581 13.5059C5.99249 15.2794 6.00261 17.0575 6.11392 18.8299C6.19599 20.1233 6.40399 21.5527 7.40349 22.377C8.28945 23.1069 9.53967 23.1429 10.6887 23.144C14.336 23.1474 17.9843 23.1508 21.6327 23.153C22.1004 23.1542 22.5884 23.1452 23.0651 23.0934C24.0028 22.9922 24.8966 22.7234 25.4992 22.0284C26.1075 21.3277 26.2637 20.3527 26.3559 19.4294C26.5808 17.1891 26.5785 14.9274 26.3481 12.6883ZM14.0976 19.1448V12.8637L19.5348 16.0037L14.0976 19.1448Z" fill="white"/>
</svg>
