<svg width="32" height="22" viewBox="0 0 32 22" fill="none" xmlns="http://www.w3.org/2000/svg">
<path d="M31.1124 5.96993C30.9235 4.14633 30.5171 2.13042 29.0212 1.07101C27.8626 0.24946 26.3397 0.219088 24.9181 0.220775C21.9128 0.220775 18.9058 0.225843 15.9006 0.22753C13.01 0.230904 10.1194 0.232588 7.22878 0.235962C6.02127 0.235962 4.84749 0.143178 3.726 0.666134C2.76303 1.11486 2.00918 1.96847 1.55553 2.91823C0.926475 4.23911 0.794938 5.73544 0.719047 7.19635C0.579071 9.85668 0.594249 12.5237 0.761209 15.1824C0.884321 17.1224 1.19631 19.2665 2.69557 20.5031C4.0245 21.5979 5.89984 21.6519 7.6234 21.6536C13.0943 21.6586 18.5669 21.6637 24.0394 21.6671C24.741 21.6687 25.4729 21.6553 26.188 21.5777C27.5945 21.4258 28.9352 21.0226 29.8391 19.9801C30.7515 18.9291 30.9859 17.4665 31.1242 16.0815C31.4615 12.7211 31.4581 9.32866 31.1124 5.96993ZM12.7368 15.6547V6.23309L20.8925 10.9431L12.7368 15.6547Z" fill="#606060"/>
</svg>
